<svg id="visual" viewBox="0 0 900 600" width="900" height="600" xmlns="http://www.w3.org/2000/svg" xmlns:xlink="http://www.w3.org/1999/xlink" version="1.1"><rect x="0" y="0" width="900" height="600" fill="#022641"></rect><path d="M0 382L21.5 385.7C43 389.3 86 396.7 128.8 392C171.7 387.3 214.3 370.7 257.2 371.2C300 371.7 343 389.3 385.8 388.8C428.7 388.3 471.3 369.7 514.2 374.5C557 379.3 600 407.7 642.8 409.5C685.7 411.3 728.3 386.7 771.2 384.7C814 382.7 857 403.3 878.5 413.7L900 424L900 601L878.5 601C857 601 814 601 771.2 601C728.3 601 685.7 601 642.8 601C600 601 557 601 514.2 601C471.3 601 428.7 601 385.8 601C343 601 300 601 257.2 601C214.3 601 171.7 601 128.8 601C86 601 43 601 21.5 601L0 601Z" fill="#6c17b7"></path><path d="M0 442L21.5 434.3C43 426.7 86 411.3 128.8 411C171.7 410.7 214.3 425.3 257.2 436.7C300 448 343 456 385.8 456.2C428.7 456.3 471.3 448.7 514.2 438.8C557 429 600 417 642.8 423.5C685.7 430 728.3 455 771.2 460.5C814 466 857 452 878.5 445L900 438L900 601L878.5 601C857 601 814 601 771.2 601C728.3 601 685.7 601 642.8 601C600 601 557 601 514.2 601C471.3 601 428.7 601 385.8 601C343 601 300 601 257.2 601C214.3 601 171.7 601 128.8 601C86 601 43 601 21.5 601L0 601Z" fill="#5f119a"></path><path d="M0 496L21.5 489.8C43 483.7 86 471.3 128.8 469.5C171.7 467.7 214.3 476.3 257.2 480.8C300 485.3 343 485.7 385.8 490C428.7 494.3 471.3 502.7 514.2 503.7C557 504.7 600 498.3 642.8 492.3C685.7 486.3 728.3 480.7 771.2 475.7C814 470.7 857 466.3 878.5 464.2L900 462L900 601L878.5 601C857 601 814 601 771.2 601C728.3 601 685.7 601 642.8 601C600 601 557 601 514.2 601C471.3 601 428.7 601 385.8 601C343 601 300 601 257.2 601C214.3 601 171.7 601 128.8 601C86 601 43 601 21.5 601L0 601Z" fill="#520c7e"></path><path d="M0 511L21.5 508.8C43 506.7 86 502.3 128.8 500.3C171.7 498.3 214.3 498.7 257.2 499.5C300 500.3 343 501.7 385.8 499.5C428.7 497.3 471.3 491.7 514.2 493.3C557 495 600 504 642.8 504.7C685.7 505.3 728.3 497.7 771.2 495C814 492.3 857 494.7 878.5 495.8L900 497L900 601L878.5 601C857 601 814 601 771.2 601C728.3 601 685.7 601 642.8 601C600 601 557 601 514.2 601C471.3 601 428.7 601 385.8 601C343 601 300 601 257.2 601C214.3 601 171.7 601 128.8 601C86 601 43 601 21.5 601L0 601Z" fill="#440864"></path><path d="M0 544L21.5 547.7C43 551.3 86 558.7 128.8 558.2C171.7 557.7 214.3 549.3 257.2 545.8C300 542.3 343 543.7 385.8 544.3C428.7 545 471.3 545 514.2 548C557 551 600 557 642.8 555.7C685.7 554.3 728.3 545.7 771.2 544.7C814 543.7 857 550.3 878.5 553.7L900 557L900 601L878.5 601C857 601 814 601 771.2 601C728.3 601 685.7 601 642.8 601C600 601 557 601 514.2 601C471.3 601 428.7 601 385.8 601C343 601 300 601 257.2 601C214.3 601 171.7 601 128.8 601C86 601 43 601 21.5 601L0 601Z" fill="#35064b"></path></svg>